<svg width="895" height="329" viewBox="0 0 895 329" fill="none" xmlns="http://www.w3.org/2000/svg">
<path d="M275.347 293.663H149.206V276.663H275.347V293.663Z" fill="#FFFFFF"></path>
<path d="M530.885 328.288L541.222 274.941H545.113L560.067 314.189L574.945 274.941H578.835L589.213 328.288H583.757L575.861 287.477L561.746 324.782H558.312L544.198 287.477L536.302 328.288H530.885Z" fill="#FFFFFF"></path>
<path d="M634.225 328.288V274.941H666.727V280.276H639.566V297.042H662.034V302.377H639.566V322.953H666.727V328.288H634.225Z" fill="#FFFFFF"></path>
<path d="M716.317 322.953H728.639C731.588 322.953 734.355 322.401 736.936 321.296C739.517 320.19 741.786 318.661 743.745 316.704C745.704 314.748 747.236 312.481 748.342 309.902C749.448 307.324 750.001 304.561 750.001 301.615C750.001 298.668 749.448 295.905 748.342 293.327C747.236 290.749 745.697 288.481 743.726 286.525C741.755 284.569 739.485 283.039 736.916 281.933C734.349 280.829 731.588 280.276 728.639 280.276H716.317V322.953ZM710.976 328.288V274.941H728.639C732.326 274.941 735.785 275.634 739.015 277.018C742.244 278.403 745.08 280.321 747.522 282.772C749.963 285.224 751.877 288.056 753.263 291.269C754.649 294.483 755.342 297.932 755.342 301.615C755.342 305.299 754.649 308.747 753.263 311.96C751.877 315.174 749.963 318.007 747.522 320.458C745.08 322.909 742.244 324.827 739.015 326.211C735.785 327.597 732.326 328.288 728.639 328.288H710.976Z" fill="#FFFFFF"></path>
<path d="M799.211 274.941H804.552V328.288H799.211V274.941Z" fill="#FFFFFF"></path>
<path d="M860.97 311.522H882.868L871.919 281.495L860.97 311.522ZM868.6 274.941H875.238L894.693 328.288H889.01L884.851 316.856H859.025L854.866 328.288H849.184L868.6 274.941Z" fill="#FFFFFF"></path>
<path d="M804.46 193.431C804.817 189.223 806.086 185.14 808.294 181.183C810.925 176.467 814.697 172.61 819.602 169.616C824.507 166.622 830.502 165.125 837.586 165.125C844.67 165.125 850.618 166.579 855.433 169.48C860.244 172.385 863.969 175.97 866.604 180.231C869.236 184.496 870.557 188.898 870.557 193.431H804.46ZM639.886 193.431C640.243 189.223 641.512 185.14 643.721 181.183C646.351 176.467 650.123 172.61 655.028 169.616C659.933 166.622 665.928 165.125 673.012 165.125C680.097 165.125 686.044 166.579 690.859 169.48C695.67 172.385 699.396 175.97 702.031 180.231C704.663 184.496 705.983 188.898 705.983 193.431H639.886ZM547.807 229.086C541.54 235.257 533.864 238.34 524.782 238.34C518.967 238.34 513.339 237.162 507.888 234.802C503.021 232.697 498.662 229.423 494.81 224.997V180.866C498.662 176.306 503.021 173.006 507.888 170.977C513.339 168.71 518.967 167.575 524.782 167.575C533.864 167.575 541.54 170.615 547.807 176.692C554.075 182.774 557.208 191.437 557.208 202.685C557.208 214.117 554.075 222.92 547.807 229.086ZM454.484 237.796V183.361C454.484 177.465 453.809 172.299 452.477 167.847H469.196V237.796H454.484ZM276.826 237.796H259.983C261.451 235.865 262.798 233.824 264.022 231.672C268.926 223.056 271.379 213.394 271.379 202.685C271.379 191.981 268.926 182.366 264.022 173.834C262.811 171.73 261.48 169.735 260.031 167.847H276.826V237.796ZM237.183 228.814C230.916 235.53 222.784 238.885 212.796 238.885C202.441 238.885 194.174 235.53 188 228.814C181.822 222.103 178.736 213.394 178.736 202.685C178.736 192.164 181.822 183.59 188 176.965C194.174 170.343 202.441 167.03 212.796 167.03C222.784 167.03 230.916 170.343 237.183 176.965C243.45 183.59 246.583 192.164 246.583 202.685C246.583 213.394 243.45 222.103 237.183 228.814ZM894.807 202.957C894.807 192.253 892.533 182.638 887.995 174.107C883.451 165.58 876.912 158.776 868.376 153.694C859.836 148.616 849.575 146.073 837.586 146.073C825.959 146.073 815.788 148.616 807.069 153.694C798.349 158.776 791.674 165.58 787.041 174.107C782.409 182.638 780.093 192.164 780.093 202.685C780.093 213.394 782.451 223.056 787.177 231.672C787.98 233.139 788.88 234.536 789.823 235.901C788.584 236.322 787.258 236.729 785.818 237.116C783.455 237.753 781.092 238.068 778.733 238.068C772.556 238.068 767.698 236.529 764.156 233.441C760.613 230.358 758.843 224.732 758.843 216.566V167.847H788.815V148.794H758.843V108.24L733.229 112.867V148.794H714.427V161.947C711.315 158.826 707.785 156.065 703.802 153.694C695.262 148.616 685.001 146.073 673.012 146.073C661.385 146.073 651.214 148.616 642.495 153.694C633.775 158.776 627.1 165.58 622.467 174.107C617.835 182.638 615.52 192.164 615.52 202.685C615.52 213.394 617.877 223.056 622.604 231.672C623.782 233.824 625.11 235.865 626.59 237.796H611.432V98.4422H567.017V117.766H585.818V237.796H571.853C573.352 235.486 574.705 233.049 575.872 230.448C579.777 221.738 581.731 212.484 581.731 202.685C581.731 192.887 579.777 183.726 575.872 175.196C571.965 166.669 566.2 159.681 558.57 154.238C550.941 148.794 541.311 146.073 529.687 146.073C521.875 146.073 514.429 147.842 507.344 151.38C501.358 154.369 496.554 158.572 492.903 163.957V148.794H450.395V162.519C448.957 159.622 447.147 157.126 444.947 155.055C438.586 149.067 429.688 146.073 418.244 146.073C410.431 146.073 402.666 147.617 394.947 150.7C387.993 153.479 381.378 157.815 375.091 163.68C372.726 158.875 369.411 154.9 365.11 151.788C359.84 147.978 352.304 146.073 342.495 146.073C334.865 146.073 327.141 147.663 319.334 150.836C312.84 153.476 306.668 157.419 300.805 162.626V148.794H258.025V165.407C253.972 160.728 249.121 156.772 243.45 153.557C234.637 148.569 224.419 146.073 212.796 146.073C200.985 146.073 190.678 148.569 181.869 153.557C173.056 158.55 166.244 165.308 161.433 173.834C156.618 182.366 154.212 191.981 154.212 202.685C154.212 213.394 156.618 223.056 161.433 231.672C166.244 240.292 173.056 247.144 181.869 252.221C190.678 257.299 200.985 259.842 212.796 259.842C224.419 259.842 234.637 257.299 243.45 252.221C249.774 248.576 255.076 244 259.388 238.528V257.12H317.971V237.796H302.44V179.217C307.131 175.431 311.763 172.672 316.336 170.977C321.965 168.893 327.414 167.847 332.686 167.847C339.948 167.847 345.173 169.573 348.352 173.018C351.529 176.467 353.121 181.91 353.121 189.349V237.796H336.228V257.12H393.993V237.796H378.462V183.361C378.462 182.371 378.404 180.957 378.294 179.133C382.949 175.39 387.547 172.659 392.086 170.977C397.714 168.893 403.163 167.847 408.435 167.847C415.697 167.847 420.922 169.573 424.103 173.018C427.278 176.467 428.871 181.91 428.871 189.349V237.796H411.977V257.12H469.196V284.338H451.485V303.662H510.887V284.338H494.81V244.401C498.181 248.496 502.346 251.84 507.344 254.399C514.429 258.027 521.875 259.842 529.687 259.842C541.311 259.842 550.941 257.12 558.57 251.677C562.168 249.11 565.338 246.165 568.107 242.871V257.12H628.053V239.563C632.288 244.576 637.584 248.809 643.993 252.221C653.529 257.299 665.288 259.842 679.279 259.842C689.268 259.842 698.668 258.345 707.481 255.351C716.29 252.358 723.6 248.232 729.416 242.967L718.789 225.003C714.246 228.997 708.571 232.263 701.759 234.802C694.946 237.345 687.726 238.613 680.097 238.613C666.652 238.613 656.571 235.393 649.852 228.951C645.446 224.731 642.495 219.509 640.977 213.3H730.234V202.957C730.234 192.253 727.959 182.638 723.421 174.107C722.247 171.903 720.933 169.82 719.493 167.847H733.229V220.105C733.229 234.079 736.908 244.192 744.265 250.452C751.622 256.712 761.021 259.842 772.466 259.842C776.826 259.842 781.049 259.298 785.136 258.209C789.224 257.12 792.631 255.759 795.355 254.126L792.915 239.912C797.102 244.773 802.305 248.887 808.567 252.221C818.103 257.299 829.862 259.842 843.853 259.842C853.841 259.842 863.242 258.345 872.055 255.351C880.863 252.358 888.173 248.232 893.99 242.967L883.363 225.003C878.819 228.997 873.145 232.263 866.333 234.802C859.52 237.345 852.299 238.613 844.67 238.613C831.225 238.613 821.143 235.393 814.425 228.951C810.019 224.731 807.068 219.509 805.55 213.3H894.807V202.957Z" fill="#95A6D1"></path>
<path d="M138.147 201.145C132.877 213.121 125.976 221.831 117.438 227.274C108.899 232.717 98.6372 235.439 86.6488 235.439C75.0218 235.439 64.9396 233.037 56.403 228.226C47.8625 223.42 41.2811 216.706 36.649 208.085C32.0168 199.469 29.7002 189.352 29.7002 177.738C29.7002 166.127 32.0588 155.963 36.7841 147.254C41.5064 138.544 48.2289 131.74 56.9486 126.841C65.6684 121.941 76.022 119.492 88.0114 119.492C99.0887 119.492 109.264 121.988 118.528 126.977C127.793 131.97 134.878 139.905 139.782 150.792H158.312V98.2621H138.693V120.055C134.538 113.977 129.274 109.022 122.888 105.203C111.806 98.5811 98.3659 95.2681 82.5613 95.2681C66.5744 95.2681 52.3585 98.8071 39.9186 105.883C27.4737 112.96 17.7108 122.715 10.6269 135.142C3.54195 147.573 0 161.862 0 178.01C0 193.618 3.585 207.587 10.763 219.925C17.937 232.266 27.9713 241.971 40.8717 249.047C53.7681 256.124 68.937 259.663 86.3765 259.663C104.905 259.663 120.3 255.626 132.562 247.551C144.824 239.479 154.041 227.729 160.219 212.304L138.147 201.145Z" fill="#FFFFFF"></path>
<path d="M482.754 84.417C483.061 80.792 484.156 77.273 486.058 73.865C488.324 69.802 491.574 66.479 495.8 63.899C500.025 61.32 505.191 60.03 511.293 60.03C517.398 60.03 522.523 61.283 526.67 63.782C530.815 66.284 534.023 69.373 536.296 73.044C538.562 76.719 539.698 80.511 539.698 84.417H482.754ZM425.023 120.06C420.247 122.093 415.357 123.108 410.35 123.108C402.522 123.108 395.913 120.452 390.514 115.135C385.114 109.822 382.415 102.238 382.415 92.39C382.415 82.699 385.114 75.235 390.514 69.996C395.913 64.76 402.522 62.14 410.35 62.14C415.357 62.14 420.247 63.119 425.023 65.071C429.265 66.811 432.98 69.634 436.173 73.534V111.668C432.98 115.454 429.265 118.255 425.023 120.06ZM338.636 114.9C333.236 120.686 326.23 123.577 317.626 123.577C308.705 123.577 301.582 120.686 296.263 114.9C290.941 109.119 288.282 101.615 288.282 92.39C288.282 83.325 290.941 75.938 296.263 70.23C301.582 64.525 308.705 61.671 317.626 61.671C326.23 61.671 333.236 64.525 338.636 70.23C344.035 75.938 346.734 83.325 346.734 92.39C346.734 101.615 344.035 109.119 338.636 114.9ZM560.593 92.624C560.593 83.402 558.633 75.118 554.723 67.768C550.81 60.422 545.175 54.56 537.821 50.181C530.463 45.807 521.624 43.616 511.293 43.616C501.277 43.616 492.515 45.807 485.003 50.181C477.49 54.56 471.738 60.422 467.746 67.768C463.756 75.118 461.762 83.325 461.762 92.39C461.762 101.615 463.793 109.939 467.864 117.363C468.88 119.216 470.025 120.975 471.299 122.639H458.24V2.58002H419.975V19.229H436.173V56.814C433.27 53.224 429.68 50.338 425.375 48.188C419.271 45.14 412.852 43.616 406.125 43.616C396.265 43.616 388.008 45.96 381.359 50.65C374.704 55.34 369.698 61.36 366.335 68.706C365.657 70.183 365.068 71.689 364.527 73.21C363.736 71.26 362.813 69.368 361.759 67.534C357.533 60.188 351.625 54.366 344.035 50.064C336.443 45.766 327.639 43.616 317.626 43.616C307.45 43.616 298.57 45.766 290.981 50.064C283.388 54.366 277.52 60.188 273.375 67.534C269.226 74.883 267.153 83.167 267.153 92.39C267.153 94.52 267.276 96.596 267.498 98.63L252.836 91.217C248.295 101.535 242.349 109.039 234.995 113.728C227.637 118.418 218.797 120.763 208.469 120.763C198.45 120.763 189.765 118.693 182.41 114.549C175.052 110.409 169.382 104.624 165.39 97.197C161.4 89.773 159.405 81.057 159.405 71.051C159.405 61.048 161.437 52.292 165.509 44.788C169.576 37.284 175.368 31.422 182.88 27.201C190.392 22.98 199.312 20.87 209.642 20.87C219.186 20.87 227.952 23.021 235.934 27.318C243.915 31.62 250.019 38.457 254.245 47.836H270.208V2.58002H253.306V21.355C249.727 16.118 245.192 11.849 239.69 8.55902C230.142 2.85402 218.563 1.52588e-05 204.947 1.52588e-05C191.173 1.52588e-05 178.926 3.04901 168.208 9.14601C157.487 15.242 149.075 23.647 142.972 34.353C136.869 45.063 133.817 57.374 133.817 71.286C133.817 84.732 136.906 96.768 143.089 107.397C149.27 118.03 157.915 126.391 169.029 132.487C180.14 138.584 193.209 141.632 208.233 141.632C224.196 141.632 237.46 138.155 248.024 131.198C256.905 125.352 263.925 117.256 269.1 106.932C270.124 110.583 271.533 114.067 273.375 117.363C277.52 124.79 283.388 130.692 290.981 135.067C298.57 139.441 307.45 141.632 317.626 141.632C327.639 141.632 336.443 139.441 344.035 135.067C351.625 130.692 357.533 124.79 361.759 117.363C362.807 115.522 363.723 113.626 364.511 111.675C365.056 113.236 365.651 114.784 366.335 116.308C369.698 123.811 374.704 129.908 381.359 134.598C388.008 139.288 396.265 141.632 406.125 141.632C412.852 141.632 419.271 140.068 425.375 136.943C430.406 134.366 434.464 130.871 437.582 126.487V139.288H472.56V124.161C476.209 128.48 480.771 132.127 486.293 135.067C494.509 139.441 504.64 141.632 516.694 141.632C525.3 141.632 533.398 140.343 540.99 137.763C548.58 135.184 554.878 131.63 559.888 127.094L550.732 111.618C546.82 115.058 541.929 117.872 536.062 120.06C530.191 122.25 523.971 123.342 517.398 123.342C505.815 123.342 497.129 120.569 491.34 115.018C487.544 111.383 485.002 106.884 483.694 101.535H560.593V92.624Z" fill="#FFFFFF"></path>
</svg>