<svg width="328" height="267" viewBox="0 0 328 267" fill="none" xmlns="http://www.w3.org/2000/svg">
<path d="M137.845 103.085C132.719 114.745 126.007 123.226 117.705 128.525C109.399 133.825 99.4197 136.476 87.7597 136.476C76.4517 136.476 66.6467 134.136 58.3447 129.453C50.0387 124.773 43.6377 118.235 39.1327 109.843C34.6277 101.454 32.3747 91.604 32.3747 80.295C32.3747 68.991 34.6687 59.095 39.2647 50.615C43.8567 42.135 50.3947 35.51 58.8747 30.74C67.3547 25.97 77.4247 23.585 89.0847 23.585C99.8597 23.585 109.755 26.016 118.765 30.873C127.776 35.734 134.665 43.46 139.435 54.06H157.455V2.91504H138.375V24.133C134.335 18.215 129.215 13.391 123.005 9.67303C112.227 3.22604 99.1557 3.05176e-05 83.7847 3.05176e-05C68.2367 3.05176e-05 54.4117 3.44504 42.3127 10.335C30.2097 17.225 20.7147 26.724 13.8247 38.823C6.93472 50.926 3.49072 64.838 3.49072 80.56C3.49072 95.756 6.97673 109.358 13.9577 121.37C20.9347 133.387 30.6937 142.835 43.2407 149.726C55.7817 156.615 70.5347 160.061 87.4947 160.061C105.515 160.061 120.488 156.131 132.412 148.268C144.338 140.409 153.302 128.968 159.31 113.95L137.845 103.085Z" fill="#ffffff"/>
<path d="M298.844 103.085C293.718 114.745 287.006 123.226 278.704 128.525C270.398 133.825 260.419 136.476 248.759 136.476C237.451 136.476 227.646 134.136 219.344 129.453C211.038 124.773 204.637 118.235 200.132 109.843C195.627 101.454 193.374 91.604 193.374 80.295C193.374 68.991 195.668 59.095 200.264 50.615C204.856 42.135 211.394 35.51 219.874 30.74C228.354 25.97 238.424 23.585 250.084 23.585C260.859 23.585 270.754 26.016 279.764 30.873C288.775 35.734 295.664 43.46 300.434 54.06H318.454V2.91504H299.374V24.133C295.334 18.215 290.214 13.391 284.004 9.67303C273.226 3.22604 260.155 3.05176e-05 244.784 3.05176e-05C229.236 3.05176e-05 215.411 3.44504 203.312 10.335C191.209 17.225 181.714 26.724 174.824 38.823C167.934 50.926 164.49 64.838 164.49 80.56C164.49 95.756 167.976 109.358 174.957 121.37C181.934 133.387 191.693 142.835 204.24 149.726C216.781 156.615 231.534 160.061 248.494 160.061C266.514 160.061 281.487 156.131 293.411 148.268C305.337 140.409 314.301 128.968 320.309 113.95L298.844 103.085Z" fill="#ffffff"/>
<path d="M323.796 193.41H162.796V176.41H323.796V193.41Z" fill="#ffffff"/>
<path d="M0 266.41L10.434 212.51H14.36L29.452 252.165L44.468 212.51H48.395L58.866 266.41H53.361L45.392 225.177L31.146 262.868H27.682L13.437 225.177L5.467 266.41H0Z" fill="#ffffff"/>
<path d="M94.2861 266.41V212.51H127.088V217.9H99.6761V234.84H122.352V240.23H99.6761V261.02H127.088V266.41H94.2861Z" fill="#ffffff"/>
<path d="M167.127 261.021H179.563C182.54 261.021 185.331 260.462 187.937 259.346C190.541 258.229 192.832 256.683 194.809 254.707C196.785 252.731 198.331 250.44 199.448 247.834C200.565 245.23 201.123 242.438 201.123 239.46C201.123 236.484 200.565 233.692 199.448 231.086C198.331 228.482 196.778 226.191 194.789 224.214C192.8 222.239 190.51 220.692 187.917 219.576C185.324 218.458 182.54 217.901 179.563 217.901H167.127V261.021ZM161.737 266.411V212.51H179.563C183.284 212.51 186.774 213.21 190.035 214.609C193.294 216.008 196.156 217.946 198.62 220.422C201.084 222.9 203.016 225.761 204.414 229.008C205.814 232.255 206.513 235.74 206.513 239.46C206.513 243.182 205.814 246.667 204.414 249.914C203.016 253.161 201.084 256.022 198.62 258.499C196.156 260.976 193.294 262.914 190.035 264.312C186.774 265.711 183.284 266.411 179.563 266.411H161.737Z" fill="#ffffff"/>
<path d="M240.777 212.51H246.167V266.41H240.777V212.51Z" fill="#ffffff"/>
<path d="M293.098 249.47H315.197L304.148 219.132L293.098 249.47ZM300.798 212.51H307.497L327.132 266.41H321.396L317.199 254.861H291.134L286.938 266.41H281.202L300.798 212.51Z" fill="#ffffff"/>
</svg>
