<!-- CCM monogram, Rokkitt 800 (outlined), tightly tracked to match the headline font. #2a2a2a on light, #fff in dark mode. -->
<svg xmlns="http://www.w3.org/2000/svg" viewBox="0 0 2331.3 2331.3">
<style>@media (prefers-color-scheme: dark){path{fill:#ffffff !important}}</style>
<g transform="matrix(1 0 0 -1 192.7 1457.6)"><path d="M359.94110107421875 -10.0Q258.76483154296875 -10.0 185.32373046875 28.029449462890625Q111.88262939453125 66.05889892578125 72.38262939453125 133.73538208007812Q32.88262939453125 201.411865234375 32.88262939453125 290.0Q32.88262939453125 380.94110107421875 72.20614624023438 449.44110107421875Q111.5296630859375 517.9411010742188 180.0296630859375 555.9705505371094Q248.5296630859375 594.0 335.88262939453125 594.0Q422.235595703125 594.0 480.1474609375 558.0Q538.059326171875 522.0 563.3533935546875 447.64703369140625L523.3538208007812 473.764404296875V583.0H634.9995727539062V371.11822509765625H528.0008544921875Q505.883056640625 421.0008544921875 465.9120788574219 445.0892028808594Q425.94110107421875 469.17755126953125 374.0584716796875 469.17755126953125Q322.9991455078125 469.17755126953125 285.7341003417969 447.3832702636719Q248.46905517578125 425.5889892578125 228.32180786132812 385.7358093261719Q208.174560546875 345.88262939453125 208.174560546875 291.64703369140625Q208.174560546875 237.11737060546875 226.85125732421875 197.26419067382812Q245.5279541015625 157.4110107421875 280.82244873046875 136.11672973632812Q316.116943359375 114.82244873046875 365.4703369140625 114.82244873046875Q422.35296630859375 114.82244873046875 461.235595703125 145.14596557617188Q500.11822509765625 175.469482421875 522.294921875 241.1754150390625L648.1758422851562 186.46990966796875Q620.3521118164062 92.99957275390625 546.02880859375 41.499786376953125Q471.70550537109375 -10.0 359.94110107421875 -10.0ZM914.9411010742188 -10.0Q813.7648315429688 -10.0 740.32373046875 28.029449462890625Q666.8826293945312 66.05889892578125 627.3826293945312 133.73538208007812Q587.8826293945312 201.411865234375 587.8826293945312 290.0Q587.8826293945312 380.94110107421875 627.2061462402344 449.44110107421875Q666.5296630859375 517.9411010742188 735.0296630859375 555.9705505371094Q803.5296630859375 594.0 890.8826293945312 594.0Q977.235595703125 594.0 1035.1474609375 558.0Q1093.059326171875 522.0 1118.3533935546875 447.64703369140625L1078.3538208007812 473.764404296875V583.0H1189.9995727539062V371.11822509765625H1083.0008544921875Q1060.883056640625 421.0008544921875 1020.9120788574219 445.0892028808594Q980.9411010742188 469.17755126953125 929.0584716796875 469.17755126953125Q877.9991455078125 469.17755126953125 840.7341003417969 447.3832702636719Q803.4690551757812 425.5889892578125 783.3218078613281 385.7358093261719Q763.174560546875 345.88262939453125 763.174560546875 291.64703369140625Q763.174560546875 237.11737060546875 781.8512573242188 197.26419067382812Q800.5279541015625 157.4110107421875 835.8224487304688 136.11672973632812Q871.116943359375 114.82244873046875 920.4703369140625 114.82244873046875Q977.3529663085938 114.82244873046875 1016.235595703125 145.14596557617188Q1055.1182250976562 175.469482421875 1077.294921875 241.1754150390625L1203.1758422851562 186.46990966796875Q1175.3521118164062 92.99957275390625 1101.02880859375 41.499786376953125Q1026.7055053710938 -10.0 914.9411010742188 -10.0ZM1141.7648315429688 0.0V106.94024658203125H1197.7652587890625V476.05975341796875H1141.7648315429688V583.0H1415.8800659179688L1532.7055053710938 279.52752685546875H1513.4703369140625L1631.58984375 583.0H1912.9402465820312V476.05975341796875H1856.9398193359375V106.94024658203125H1912.9402465820312V0.0H1653.4707641601562V106.94024658203125H1703.7652587890625V405.76611328125L1582.4105834960938 87.17626953125H1463.7652587890625L1338.7635498046875 405.76611328125V106.94024658203125H1389.0580444335938V0.0Z" fill="#2a2a2a"/></g>
</svg>
