<?xml version="1.0" encoding="UTF-8"?>
<svg xmlns="http://www.w3.org/2000/svg" viewBox="0 0 24 24" width="512" height="512">
  <path d="M20.447,20.452H16.893V14.883c0-1.338-.027-3.056-1.864-3.056-1.864,0-2.15,1.456-2.15,2.957v5.669H9.351V9h3.414v1.561h.049c.479-.912,1.65-1.872,3.394-1.872,3.629,0,4.298,2.389,4.298,5.498v6.266ZM5.337,7.433A2.064,2.064,0,1,1,7.4,5.368,2.062,2.062,0,0,1,5.337,7.433ZM7.119,20.452H3.555V9H7.119v11.452ZM22.225,0H1.771A1.755,1.755,0,0,0,0,1.771V22.228A1.756,1.756,0,0,0,1.771,24H22.222A1.756,1.756,0,0,0,24,22.228V1.771A1.756,1.756,0,0,0,22.222,0h.003Z" fill="white"/>
</svg>