<?xml version="1.0" encoding="UTF-8"?>
<svg xmlns="http://www.w3.org/2000/svg" viewBox="0 0 24 24" width="512" height="512">
  <path d="M23.32,6.44a.5.5,0,0,0-.64-.41l-1.1.29A3.25,3.25,0,0,0,19.11,3a.5.5,0,0,0-.41.23.49.49,0,0,0,0,.47A4.11,4.11,0,0,1,19,5.55a.5.5,0,0,0-.38.36,3.36,3.36,0,0,1-2.77,2.35,3.3,3.3,0,0,1-1.95-.37,3.37,3.37,0,0,1-1.55-1.62.5.5,0,0,0-.64-.24A9.74,9.74,0,0,1,5.88,7.41a.5.5,0,0,0-.86.33A4.93,4.93,0,0,0,7.26,12.1,6.5,6.5,0,0,1,5.76,13.1a.75.75,0,0,0-.23.19.5.5,0,0,0,0,.69,5.4,5.4,0,0,0,3.56,1.62,7.27,7.27,0,0,0,3.56-.94,7.76,7.76,0,0,0,3.85-4.39,11.6,11.6,0,0,0,.47-4.35v0a.5.5,0,0,0,.2-.39.49.49,0,0,0-.14-.35A8.2,8.2,0,0,0,19.14,4a3,3,0,0,0,.86.94.5.5,0,0,0,.5.09,2.1,2.1,0,0,0,.79-.35A.5.5,0,0,0,23.32,6.44Z" fill="white"/>
</svg>